<mxfile host="app.diagrams.net" modified="2023-08-21T11:00:15.085Z" agent="Mozilla/5.0 (X11; Linux x86_64) AppleWebKit/537.36 (KHTML, like Gecko) Chrome/115.0.0.0 Safari/537.36" etag="xjBBAup46BsEMAAzGe6O" version="21.6.8" type="github" pages="2">
  <diagram name="Telemedicine" id="58cdce13-f638-feb5-8d6f-7d28b1aa9fa0">
    <mxGraphModel dx="1195" dy="627" grid="1" gridSize="10" guides="1" tooltips="1" connect="1" arrows="1" fold="1" page="1" pageScale="1" pageWidth="1100" pageHeight="850" background="none" math="0" shadow="0">
      <root>
        <mxCell id="0" />
        <mxCell id="1" parent="0" />
        <mxCell id="382b91b5511bd0f7-1" value="" style="ellipse;html=1;shape=startState;fillColor=#000000;strokeColor=#ff0000;rounded=1;shadow=0;comic=0;labelBackgroundColor=none;fontFamily=Verdana;fontSize=12;fontColor=#000000;align=center;direction=south;" parent="1" vertex="1">
          <mxGeometry x="80" y="555" width="30" height="30" as="geometry" />
        </mxCell>
        <mxCell id="382b91b5511bd0f7-6" value="Checking" style="rounded=1;whiteSpace=wrap;html=1;arcSize=24;fillColor=#ffffc0;strokeColor=#ff0000;shadow=0;comic=0;labelBackgroundColor=none;fontFamily=Verdana;fontSize=12;fontColor=#000000;align=center;" parent="1" vertex="1">
          <mxGeometry x="220" y="540" width="120" height="60" as="geometry" />
        </mxCell>
        <mxCell id="WSxjoX6YqPecwqRZkDBV-5" style="edgeStyle=orthogonalEdgeStyle;rounded=0;orthogonalLoop=1;jettySize=auto;html=1;fillColor=#fa6800;strokeColor=#FF0000;endArrow=open;endFill=0;" edge="1" parent="1" target="WSxjoX6YqPecwqRZkDBV-2">
          <mxGeometry relative="1" as="geometry">
            <mxPoint x="470" y="630" as="sourcePoint" />
          </mxGeometry>
        </mxCell>
        <mxCell id="382b91b5511bd0f7-7" value="Waiting" style="rounded=1;whiteSpace=wrap;html=1;arcSize=24;fillColor=#ffffc0;strokeColor=#ff0000;shadow=0;comic=0;labelBackgroundColor=none;fontFamily=Verdana;fontSize=12;fontColor=#000000;align=center;" parent="1" vertex="1">
          <mxGeometry x="420" y="620" width="120" height="60" as="geometry" />
        </mxCell>
        <mxCell id="2a3bc250acf0617d-9" style="edgeStyle=orthogonalEdgeStyle;html=1;labelBackgroundColor=none;endArrow=open;endSize=8;strokeColor=#ff0000;fontFamily=Verdana;fontSize=12;align=left;exitX=0.499;exitY=0.185;exitDx=0;exitDy=0;exitPerimeter=0;" parent="1" source="382b91b5511bd0f7-1" target="382b91b5511bd0f7-6" edge="1">
          <mxGeometry relative="1" as="geometry" />
        </mxCell>
        <mxCell id="2a3bc250acf0617d-10" style="edgeStyle=orthogonalEdgeStyle;html=1;labelBackgroundColor=none;endArrow=open;endSize=8;strokeColor=#ff0000;fontFamily=Verdana;fontSize=12;align=left;entryX=0;entryY=0.5;" parent="1" source="382b91b5511bd0f7-6" target="382b91b5511bd0f7-7" edge="1">
          <mxGeometry relative="1" as="geometry">
            <Array as="points">
              <mxPoint x="280" y="650" />
            </Array>
          </mxGeometry>
        </mxCell>
        <mxCell id="WSxjoX6YqPecwqRZkDBV-2" value="In Session" style="rounded=1;whiteSpace=wrap;html=1;arcSize=24;fillColor=#ffffc0;strokeColor=#ff0000;shadow=0;comic=0;labelBackgroundColor=none;fontFamily=Verdana;fontSize=12;fontColor=#000000;align=center;" vertex="1" parent="1">
          <mxGeometry x="410" y="440" width="120" height="60" as="geometry" />
        </mxCell>
        <mxCell id="WSxjoX6YqPecwqRZkDBV-4" style="edgeStyle=orthogonalEdgeStyle;html=1;labelBackgroundColor=none;endArrow=open;endSize=8;strokeColor=#ff0000;fontFamily=Verdana;fontSize=12;align=left;entryX=0;entryY=0.75;entryDx=0;entryDy=0;" edge="1" parent="1" source="382b91b5511bd0f7-6" target="WSxjoX6YqPecwqRZkDBV-2">
          <mxGeometry relative="1" as="geometry">
            <Array as="points">
              <mxPoint x="280" y="485" />
            </Array>
            <mxPoint x="280" y="445" as="sourcePoint" />
            <mxPoint x="390" y="495" as="targetPoint" />
          </mxGeometry>
        </mxCell>
        <mxCell id="WSxjoX6YqPecwqRZkDBV-7" value="Retrying" style="rounded=1;whiteSpace=wrap;html=1;arcSize=24;fillColor=#ffffc0;strokeColor=#ff0000;shadow=0;comic=0;labelBackgroundColor=none;fontFamily=Verdana;fontSize=12;fontColor=#000000;align=center;" vertex="1" parent="1">
          <mxGeometry x="670" y="300" width="120" height="60" as="geometry" />
        </mxCell>
        <mxCell id="WSxjoX6YqPecwqRZkDBV-8" style="edgeStyle=orthogonalEdgeStyle;html=1;labelBackgroundColor=none;endArrow=open;endSize=8;strokeColor=#ff0000;fontFamily=Verdana;fontSize=12;align=left;" edge="1" parent="1" target="WSxjoX6YqPecwqRZkDBV-7">
          <mxGeometry relative="1" as="geometry">
            <Array as="points">
              <mxPoint x="470" y="332" />
            </Array>
            <mxPoint x="470" y="440" as="sourcePoint" />
            <mxPoint x="620" y="332" as="targetPoint" />
          </mxGeometry>
        </mxCell>
        <mxCell id="WSxjoX6YqPecwqRZkDBV-10" style="edgeStyle=orthogonalEdgeStyle;html=1;labelBackgroundColor=none;endArrow=open;endSize=8;strokeColor=#ff0000;fontFamily=Verdana;fontSize=12;align=left;" edge="1" parent="1">
          <mxGeometry relative="1" as="geometry">
            <Array as="points">
              <mxPoint x="690" y="270" />
              <mxPoint x="750" y="270" />
            </Array>
            <mxPoint x="689.5" y="300" as="sourcePoint" />
            <mxPoint x="750.5" y="300" as="targetPoint" />
          </mxGeometry>
        </mxCell>
        <mxCell id="WSxjoX6YqPecwqRZkDBV-11" style="edgeStyle=elbowEdgeStyle;html=1;labelBackgroundColor=none;endArrow=open;endSize=8;strokeColor=#ff0000;fontFamily=Verdana;fontSize=12;align=left;exitX=0.442;exitY=1.005;entryX=1;entryY=0.5;entryDx=0;entryDy=0;exitDx=0;exitDy=0;exitPerimeter=0;" edge="1" parent="1" source="WSxjoX6YqPecwqRZkDBV-7">
          <mxGeometry relative="1" as="geometry">
            <mxPoint x="720" y="370" as="sourcePoint" />
            <mxPoint x="540.1999999999998" y="660" as="targetPoint" />
            <Array as="points">
              <mxPoint x="720" y="520" />
              <mxPoint x="750.2" y="520" />
            </Array>
          </mxGeometry>
        </mxCell>
        <mxCell id="WSxjoX6YqPecwqRZkDBV-13" style="edgeStyle=orthogonalEdgeStyle;html=1;labelBackgroundColor=none;endArrow=open;endSize=8;strokeColor=#ff0000;fontFamily=Verdana;fontSize=12;align=left;" edge="1" parent="1">
          <mxGeometry relative="1" as="geometry">
            <Array as="points">
              <mxPoint x="440" y="735.03" />
              <mxPoint x="500" y="735.03" />
            </Array>
            <mxPoint x="439.5" y="680" as="sourcePoint" />
            <mxPoint x="500.5" y="680" as="targetPoint" />
          </mxGeometry>
        </mxCell>
        <mxCell id="WSxjoX6YqPecwqRZkDBV-14" value="Call Finished" style="rounded=1;whiteSpace=wrap;html=1;arcSize=24;fillColor=#ffffc0;strokeColor=#ff0000;shadow=0;comic=0;labelBackgroundColor=none;fontFamily=Verdana;fontSize=12;fontColor=#000000;align=center;" vertex="1" parent="1">
          <mxGeometry x="765" y="440" width="120" height="60" as="geometry" />
        </mxCell>
        <mxCell id="WSxjoX6YqPecwqRZkDBV-17" style="edgeStyle=orthogonalEdgeStyle;html=1;labelBackgroundColor=none;endArrow=open;endSize=8;strokeColor=#ff0000;fontFamily=Verdana;fontSize=12;align=left;entryX=0;entryY=0.5;entryDx=0;entryDy=0;exitX=1;exitY=0.5;exitDx=0;exitDy=0;" edge="1" parent="1" source="WSxjoX6YqPecwqRZkDBV-2" target="WSxjoX6YqPecwqRZkDBV-14">
          <mxGeometry relative="1" as="geometry">
            <Array as="points" />
            <mxPoint x="610" y="525" as="sourcePoint" />
            <mxPoint x="740" y="470" as="targetPoint" />
          </mxGeometry>
        </mxCell>
        <mxCell id="WSxjoX6YqPecwqRZkDBV-20" value="" style="group" vertex="1" connectable="0" parent="1">
          <mxGeometry x="810" y="680" width="30" height="30" as="geometry" />
        </mxCell>
        <mxCell id="WSxjoX6YqPecwqRZkDBV-18" value="" style="ellipse;shape=doubleEllipse;whiteSpace=wrap;html=1;fillStyle=solid;fillColor=#000000;" vertex="1" parent="WSxjoX6YqPecwqRZkDBV-20">
          <mxGeometry x="5" y="5" width="20" height="20" as="geometry" />
        </mxCell>
        <mxCell id="WSxjoX6YqPecwqRZkDBV-19" value="" style="ellipse;whiteSpace=wrap;html=1;opacity=50;strokeColor=default;gradientColor=none;fillStyle=dashed;fillColor=none;" vertex="1" parent="WSxjoX6YqPecwqRZkDBV-20">
          <mxGeometry width="30" height="30" as="geometry" />
        </mxCell>
        <mxCell id="WSxjoX6YqPecwqRZkDBV-21" style="edgeStyle=orthogonalEdgeStyle;html=1;labelBackgroundColor=none;endArrow=open;endSize=8;strokeColor=#ff0000;fontFamily=Verdana;fontSize=12;align=left;exitX=0.811;exitY=0.995;exitDx=0;exitDy=0;exitPerimeter=0;" edge="1" parent="1" source="382b91b5511bd0f7-7">
          <mxGeometry relative="1" as="geometry">
            <Array as="points">
              <mxPoint x="517" y="700" />
            </Array>
            <mxPoint x="493.97" y="690" as="sourcePoint" />
            <mxPoint x="809.97" y="700" as="targetPoint" />
          </mxGeometry>
        </mxCell>
        <mxCell id="WSxjoX6YqPecwqRZkDBV-22" style="edgeStyle=orthogonalEdgeStyle;rounded=0;orthogonalLoop=1;jettySize=auto;html=1;fillColor=#fa6800;strokeColor=#FF0000;endArrow=open;endFill=0;exitX=0.5;exitY=1;exitDx=0;exitDy=0;entryX=0.5;entryY=0;entryDx=0;entryDy=0;" edge="1" parent="1" source="WSxjoX6YqPecwqRZkDBV-14" target="WSxjoX6YqPecwqRZkDBV-19">
          <mxGeometry relative="1" as="geometry">
            <mxPoint x="824.71" y="505" as="sourcePoint" />
            <mxPoint x="824.71" y="635" as="targetPoint" />
            <Array as="points" />
          </mxGeometry>
        </mxCell>
        <mxCell id="WSxjoX6YqPecwqRZkDBV-23" value="selectDoctor()" style="text;html=1;align=center;verticalAlign=middle;resizable=0;points=[];autosize=1;strokeColor=none;fillColor=none;" vertex="1" parent="1">
          <mxGeometry x="110" y="568" width="100" height="30" as="geometry" />
        </mxCell>
        <mxCell id="WSxjoX6YqPecwqRZkDBV-24" value="isDoctorAvailable()&lt;br&gt;[true]" style="text;html=1;align=center;verticalAlign=middle;resizable=0;points=[];autosize=1;strokeColor=none;fillColor=none;" vertex="1" parent="1">
          <mxGeometry x="270" y="443" width="120" height="40" as="geometry" />
        </mxCell>
        <mxCell id="WSxjoX6YqPecwqRZkDBV-25" value="isDoctorAvailable()&lt;br&gt;[false]" style="text;html=1;align=center;verticalAlign=middle;resizable=0;points=[];autosize=1;strokeColor=none;fillColor=none;" vertex="1" parent="1">
          <mxGeometry x="275" y="650" width="120" height="40" as="geometry" />
        </mxCell>
        <mxCell id="WSxjoX6YqPecwqRZkDBV-26" value="isDisconnected()&lt;br&gt;[true]&lt;br&gt;&amp;amp;&amp;amp;&lt;br&gt;sessionDone = false" style="text;html=1;align=center;verticalAlign=middle;resizable=0;points=[];autosize=1;strokeColor=none;fillColor=none;" vertex="1" parent="1">
          <mxGeometry x="470" y="260" width="130" height="70" as="geometry" />
        </mxCell>
        <mxCell id="WSxjoX6YqPecwqRZkDBV-27" value="time &amp;lt; 30s" style="text;html=1;align=center;verticalAlign=middle;resizable=0;points=[];autosize=1;strokeColor=none;fillColor=none;" vertex="1" parent="1">
          <mxGeometry x="680" y="240" width="80" height="30" as="geometry" />
        </mxCell>
        <mxCell id="WSxjoX6YqPecwqRZkDBV-28" value="sessionDone&amp;nbsp;= true" style="text;html=1;align=center;verticalAlign=middle;resizable=0;points=[];autosize=1;strokeColor=none;fillColor=none;imageWidth=20;imageHeight=20;" vertex="1" parent="1">
          <mxGeometry x="550" y="440" width="130" height="30" as="geometry" />
        </mxCell>
        <mxCell id="WSxjoX6YqPecwqRZkDBV-30" value="time &amp;gt;= 30s" style="text;html=1;align=center;verticalAlign=middle;resizable=0;points=[];autosize=1;strokeColor=none;fillColor=none;" vertex="1" parent="1">
          <mxGeometry x="635" y="538" width="90" height="30" as="geometry" />
        </mxCell>
        <mxCell id="WSxjoX6YqPecwqRZkDBV-31" value="isDoctorAvailable()&lt;br&gt;[true]" style="text;html=1;align=center;verticalAlign=middle;resizable=0;points=[];autosize=1;strokeColor=none;fillColor=none;" vertex="1" parent="1">
          <mxGeometry x="470" y="538" width="120" height="40" as="geometry" />
        </mxCell>
        <mxCell id="WSxjoX6YqPecwqRZkDBV-32" value="isDoctorAvailable()&lt;br&gt;[false]" style="text;html=1;align=center;verticalAlign=middle;resizable=0;points=[];autosize=1;strokeColor=none;fillColor=none;" vertex="1" parent="1">
          <mxGeometry x="410" y="740" width="120" height="40" as="geometry" />
        </mxCell>
        <mxCell id="WSxjoX6YqPecwqRZkDBV-33" value="cancelSession()" style="text;html=1;align=center;verticalAlign=middle;resizable=0;points=[];autosize=1;strokeColor=none;fillColor=none;" vertex="1" parent="1">
          <mxGeometry x="615" y="698" width="110" height="30" as="geometry" />
        </mxCell>
        <mxCell id="WSxjoX6YqPecwqRZkDBV-34" value="saveSessionInfo()" style="text;html=1;align=center;verticalAlign=middle;resizable=0;points=[];autosize=1;strokeColor=none;fillColor=none;" vertex="1" parent="1">
          <mxGeometry x="820" y="578" width="120" height="30" as="geometry" />
        </mxCell>
      </root>
    </mxGraphModel>
  </diagram>
  <diagram id="b9n7KEf3yiRHg1ebjLb2" name="Appointment">
    <mxGraphModel dx="1434" dy="752" grid="1" gridSize="10" guides="1" tooltips="1" connect="1" arrows="1" fold="1" page="1" pageScale="1" pageWidth="1100" pageHeight="850" math="0" shadow="0">
      <root>
        <mxCell id="0" />
        <mxCell id="1" parent="0" />
        <mxCell id="D2zDKvqp5_L_A3hYulaR-32" value="" style="ellipse;html=1;shape=startState;fillColor=#000000;strokeColor=#ff0000;rounded=1;shadow=0;comic=0;labelBackgroundColor=none;fontFamily=Verdana;fontSize=12;fontColor=#000000;align=center;direction=south;" vertex="1" parent="1">
          <mxGeometry x="110" y="415" width="30" height="30" as="geometry" />
        </mxCell>
        <mxCell id="D2zDKvqp5_L_A3hYulaR-33" value="Appointments&lt;br&gt;Showed" style="rounded=1;whiteSpace=wrap;html=1;arcSize=24;fillColor=#ffffc0;strokeColor=#ff0000;shadow=0;comic=0;labelBackgroundColor=none;fontFamily=Verdana;fontSize=12;fontColor=#000000;align=center;" vertex="1" parent="1">
          <mxGeometry x="250" y="400" width="120" height="60" as="geometry" />
        </mxCell>
        <mxCell id="D2zDKvqp5_L_A3hYulaR-36" style="edgeStyle=orthogonalEdgeStyle;html=1;labelBackgroundColor=none;endArrow=open;endSize=8;strokeColor=#ff0000;fontFamily=Verdana;fontSize=12;align=left;exitX=0.499;exitY=0.185;exitDx=0;exitDy=0;exitPerimeter=0;" edge="1" parent="1" source="D2zDKvqp5_L_A3hYulaR-32" target="D2zDKvqp5_L_A3hYulaR-33">
          <mxGeometry relative="1" as="geometry" />
        </mxCell>
        <mxCell id="D2zDKvqp5_L_A3hYulaR-39" style="edgeStyle=orthogonalEdgeStyle;html=1;labelBackgroundColor=none;endArrow=open;endSize=8;strokeColor=#ff0000;fontFamily=Verdana;fontSize=12;align=left;" edge="1" parent="1">
          <mxGeometry relative="1" as="geometry">
            <Array as="points" />
            <mxPoint x="370" y="425" as="sourcePoint" />
            <mxPoint x="490" y="425" as="targetPoint" />
          </mxGeometry>
        </mxCell>
        <mxCell id="D2zDKvqp5_L_A3hYulaR-44" style="edgeStyle=orthogonalEdgeStyle;html=1;labelBackgroundColor=none;endArrow=open;endSize=8;strokeColor=#ff0000;fontFamily=Verdana;fontSize=12;align=left;" edge="1" parent="1">
          <mxGeometry relative="1" as="geometry">
            <Array as="points">
              <mxPoint x="520.5" y="344.9700000000001" />
              <mxPoint x="580.5" y="344.9700000000001" />
            </Array>
            <mxPoint x="520" y="400.00000000000006" as="sourcePoint" />
            <mxPoint x="581" y="400.00000000000006" as="targetPoint" />
          </mxGeometry>
        </mxCell>
        <mxCell id="D2zDKvqp5_L_A3hYulaR-47" value="" style="group" vertex="1" connectable="0" parent="1">
          <mxGeometry x="710" y="710" width="30" height="30" as="geometry" />
        </mxCell>
        <mxCell id="D2zDKvqp5_L_A3hYulaR-48" value="" style="ellipse;shape=doubleEllipse;whiteSpace=wrap;html=1;fillStyle=solid;fillColor=#000000;" vertex="1" parent="D2zDKvqp5_L_A3hYulaR-47">
          <mxGeometry x="5" y="5" width="20" height="20" as="geometry" />
        </mxCell>
        <mxCell id="D2zDKvqp5_L_A3hYulaR-49" value="" style="ellipse;whiteSpace=wrap;html=1;opacity=50;strokeColor=default;gradientColor=none;fillStyle=dashed;fillColor=none;" vertex="1" parent="D2zDKvqp5_L_A3hYulaR-47">
          <mxGeometry width="30" height="30" as="geometry" />
        </mxCell>
        <mxCell id="D2zDKvqp5_L_A3hYulaR-51" style="edgeStyle=orthogonalEdgeStyle;rounded=0;orthogonalLoop=1;jettySize=auto;html=1;fillColor=#fa6800;strokeColor=#FF0000;endArrow=open;endFill=0;exitX=0.5;exitY=1;exitDx=0;exitDy=0;" edge="1" parent="1">
          <mxGeometry relative="1" as="geometry">
            <mxPoint x="854.5" y="450.00000000000006" as="sourcePoint" />
            <mxPoint x="855" y="580" as="targetPoint" />
            <Array as="points" />
          </mxGeometry>
        </mxCell>
        <mxCell id="D2zDKvqp5_L_A3hYulaR-63" value="bookAppointment()" style="text;html=1;align=center;verticalAlign=middle;resizable=0;points=[];autosize=1;strokeColor=none;fillColor=none;" vertex="1" parent="1">
          <mxGeometry x="370" y="428" width="120" height="30" as="geometry" />
        </mxCell>
        <mxCell id="D2zDKvqp5_L_A3hYulaR-64" value="Pending" style="rounded=1;whiteSpace=wrap;html=1;arcSize=24;fillColor=#ffffc0;strokeColor=#ff0000;shadow=0;comic=0;labelBackgroundColor=none;fontFamily=Verdana;fontSize=12;fontColor=#000000;align=center;" vertex="1" parent="1">
          <mxGeometry x="490" y="398.00000000000006" width="120" height="60" as="geometry" />
        </mxCell>
        <mxCell id="D2zDKvqp5_L_A3hYulaR-65" value="currTime &amp;lt; appointmentTime" style="text;html=1;align=center;verticalAlign=middle;resizable=0;points=[];autosize=1;strokeColor=none;fillColor=none;" vertex="1" parent="1">
          <mxGeometry x="460" y="310" width="180" height="30" as="geometry" />
        </mxCell>
        <mxCell id="D2zDKvqp5_L_A3hYulaR-66" value="Ongoing" style="rounded=1;whiteSpace=wrap;html=1;arcSize=24;fillColor=#ffffc0;strokeColor=#ff0000;shadow=0;comic=0;labelBackgroundColor=none;fontFamily=Verdana;fontSize=12;fontColor=#000000;align=center;" vertex="1" parent="1">
          <mxGeometry x="790" y="400.00000000000006" width="120" height="60" as="geometry" />
        </mxCell>
        <mxCell id="D2zDKvqp5_L_A3hYulaR-67" style="edgeStyle=orthogonalEdgeStyle;html=1;labelBackgroundColor=none;endArrow=open;endSize=8;strokeColor=#ff0000;fontFamily=Verdana;fontSize=12;align=left;" edge="1" parent="1">
          <mxGeometry relative="1" as="geometry">
            <Array as="points">
              <mxPoint x="640" y="429.70000000000005" />
            </Array>
            <mxPoint x="610" y="430" as="sourcePoint" />
            <mxPoint x="790" y="430" as="targetPoint" />
          </mxGeometry>
        </mxCell>
        <mxCell id="D2zDKvqp5_L_A3hYulaR-68" value="currTime &amp;gt;= appointmentTime" style="text;html=1;align=center;verticalAlign=middle;resizable=0;points=[];autosize=1;strokeColor=none;fillColor=none;" vertex="1" parent="1">
          <mxGeometry x="610" y="395" width="180" height="30" as="geometry" />
        </mxCell>
        <mxCell id="D2zDKvqp5_L_A3hYulaR-69" style="edgeStyle=orthogonalEdgeStyle;html=1;labelBackgroundColor=none;endArrow=open;endSize=8;strokeColor=#ff0000;fontFamily=Verdana;fontSize=12;align=left;" edge="1" parent="1">
          <mxGeometry relative="1" as="geometry">
            <Array as="points">
              <mxPoint x="820" y="344.9700000000001" />
              <mxPoint x="880" y="344.9700000000001" />
            </Array>
            <mxPoint x="819.5" y="400.00000000000006" as="sourcePoint" />
            <mxPoint x="880.5" y="400.00000000000006" as="targetPoint" />
          </mxGeometry>
        </mxCell>
        <mxCell id="D2zDKvqp5_L_A3hYulaR-70" value="isSessionDone()&lt;br&gt;[false]" style="text;html=1;align=center;verticalAlign=middle;resizable=0;points=[];autosize=1;strokeColor=none;fillColor=none;" vertex="1" parent="1">
          <mxGeometry x="800" y="305" width="110" height="40" as="geometry" />
        </mxCell>
        <mxCell id="D2zDKvqp5_L_A3hYulaR-71" value="isSessionDone()&lt;br&gt;[true]" style="text;html=1;align=center;verticalAlign=middle;resizable=0;points=[];autosize=1;strokeColor=none;fillColor=none;" vertex="1" parent="1">
          <mxGeometry x="860" y="500" width="110" height="40" as="geometry" />
        </mxCell>
        <mxCell id="D2zDKvqp5_L_A3hYulaR-72" value="Finished" style="rounded=1;whiteSpace=wrap;html=1;arcSize=24;fillColor=#ffffc0;strokeColor=#ff0000;shadow=0;comic=0;labelBackgroundColor=none;fontFamily=Verdana;fontSize=12;fontColor=#000000;align=center;" vertex="1" parent="1">
          <mxGeometry x="795" y="580" width="120" height="60" as="geometry" />
        </mxCell>
        <mxCell id="D2zDKvqp5_L_A3hYulaR-74" style="edgeStyle=orthogonalEdgeStyle;rounded=0;orthogonalLoop=1;jettySize=auto;html=1;fillColor=#fa6800;strokeColor=#FF0000;endArrow=open;endFill=0;exitX=0.5;exitY=1;exitDx=0;exitDy=0;" edge="1" parent="1">
          <mxGeometry relative="1" as="geometry">
            <mxPoint x="550" y="458.00000000000006" as="sourcePoint" />
            <mxPoint x="550.5" y="588" as="targetPoint" />
            <Array as="points" />
          </mxGeometry>
        </mxCell>
        <mxCell id="D2zDKvqp5_L_A3hYulaR-75" value="Cancelled" style="rounded=1;whiteSpace=wrap;html=1;arcSize=24;fillColor=#ffffc0;strokeColor=#ff0000;shadow=0;comic=0;labelBackgroundColor=none;fontFamily=Verdana;fontSize=12;fontColor=#000000;align=center;" vertex="1" parent="1">
          <mxGeometry x="490" y="590" width="120" height="60" as="geometry" />
        </mxCell>
        <mxCell id="D2zDKvqp5_L_A3hYulaR-76" style="edgeStyle=orthogonalEdgeStyle;rounded=0;orthogonalLoop=1;jettySize=auto;html=1;fillColor=#fa6800;strokeColor=#FF0000;endArrow=open;endFill=0;exitX=0.5;exitY=1;exitDx=0;exitDy=0;entryX=0;entryY=0.5;entryDx=0;entryDy=0;" edge="1" parent="1" target="D2zDKvqp5_L_A3hYulaR-49">
          <mxGeometry relative="1" as="geometry">
            <mxPoint x="549" y="650" as="sourcePoint" />
            <mxPoint x="549.5" y="780" as="targetPoint" />
            <Array as="points">
              <mxPoint x="549" y="651" />
              <mxPoint x="550" y="651" />
              <mxPoint x="550" y="725" />
            </Array>
          </mxGeometry>
        </mxCell>
        <mxCell id="D2zDKvqp5_L_A3hYulaR-78" value="cancelAppointment()" style="text;html=1;align=center;verticalAlign=middle;resizable=0;points=[];autosize=1;strokeColor=none;fillColor=none;" vertex="1" parent="1">
          <mxGeometry x="420" y="510" width="130" height="30" as="geometry" />
        </mxCell>
        <mxCell id="D2zDKvqp5_L_A3hYulaR-79" style="edgeStyle=orthogonalEdgeStyle;rounded=0;orthogonalLoop=1;jettySize=auto;html=1;fillColor=#fa6800;strokeColor=#FF0000;endArrow=open;endFill=0;" edge="1" parent="1">
          <mxGeometry relative="1" as="geometry">
            <mxPoint x="860" y="640" as="sourcePoint" />
            <mxPoint x="740" y="720" as="targetPoint" />
            <Array as="points">
              <mxPoint x="860" y="720" />
              <mxPoint x="770" y="720" />
            </Array>
          </mxGeometry>
        </mxCell>
      </root>
    </mxGraphModel>
  </diagram>
</mxfile>
